<?xml version="1.0" standalone="no"?><!DOCTYPE svg PUBLIC "-//W3C//DTD SVG 1.1//EN" "http://www.w3.org/Graphics/SVG/1.1/DTD/svg11.dtd"><svg t="1609754737481" class="icon" viewBox="0 0 1129 1024" version="1.1" xmlns="http://www.w3.org/2000/svg" p-id="1149" xmlns:xlink="http://www.w3.org/1999/xlink" width="220.5078125" height="200"><defs><style type="text/css"></style></defs><path d="M808.783448 824.143448a17.655172 17.655172 0 0 1-17.655172-17.655172v-102.753104l-51.376552 65.50069a17.655172 17.655172 0 0 1-27.718621-21.715862l82.979311-105.931034a17.655172 17.655172 0 0 1 19.597241-6.002759 17.655172 17.655172 0 0 1 11.828966 16.595862v153.953103a17.655172 17.655172 0 0 1-17.655173 18.008276z" fill="#3164AF" p-id="1150"></path><path d="M889.644138 776.827586a17.655172 17.655172 0 0 1-14.124138-7.062069l-80.684138-105.931034a17.655172 17.655172 0 1 1 28.071724-21.362759l80.684138 105.931035a17.655172 17.655172 0 0 1-3.354483 24.717241 17.655172 17.655172 0 0 1-10.593103 3.707586z" fill="#3164AF" p-id="1151"></path><path d="M689.964138 845.329655H316.38069a17.655172 17.655172 0 0 1-17.655173-17.655172V161.015172a17.655172 17.655172 0 0 1 17.655173-17.655172h304.022069a17.655172 17.655172 0 0 1 12.35862 5.12l203.387587 201.268966a17.655172 17.655172 0 0 1 5.296551 12.535172V561.434483a17.655172 17.655172 0 1 1-35.310345 0V369.69931L613.164138 178.670345H334.035862v631.348965h355.928276a17.655172 17.655172 0 0 1 0 35.310345z" fill="#3164AF" p-id="1152"></path><path d="M823.790345 379.93931H620.402759a17.655172 17.655172 0 0 1-17.655173-17.655172V161.015172a17.655172 17.655172 0 1 1 35.310345 0v183.613794h185.732414a17.655172 17.655172 0 0 1 0 35.310344zM549.075862 300.137931h-150.951724a17.655172 17.655172 0 0 1 0-35.310345h150.951724a17.655172 17.655172 0 0 1 0 35.310345zM549.075862 398.830345h-150.951724a17.655172 17.655172 0 0 1 0-35.310345h150.951724a17.655172 17.655172 0 0 1 0 35.310345zM733.572414 490.990345h-335.448276a17.655172 17.655172 0 0 1 0-35.310345h335.448276a17.655172 17.655172 0 0 1 0 35.310345zM733.572414 579.089655h-335.448276a17.655172 17.655172 0 0 1 0-35.310345h335.448276a17.655172 17.655172 0 0 1 0 35.310345zM632.584828 673.368276H398.124138a17.655172 17.655172 0 1 1 0-35.310345h234.46069a17.655172 17.655172 0 0 1 0 35.310345zM632.584828 763.586207H398.124138a17.655172 17.655172 0 1 1 0-35.310345h234.46069a17.655172 17.655172 0 0 1 0 35.310345z" fill="#3164AF" p-id="1153"></path></svg>